<?xml version="1.0" encoding="UTF-8"?>
<svg version="1.1" xmlns="http://www.w3.org/2000/svg" width="165" height="152">
<path d="M0 0 C0.66 0 1.32 0 2 0 C3.9100032 5.13313361 4.7506452 8.7480644 3 14 C3.39397335 16.63804589 3.39397335 16.63804589 4 19 C5.32 17.35 6.64 15.7 8 14 C8.99 14.33 9.98 14.66 11 15 C10.74337755 16.44010481 10.46909179 17.8770687 10.1875 19.3125 C10.03667969 20.11300781 9.88585937 20.91351563 9.73046875 21.73828125 C8.91790257 24.25419471 7.87617713 25.20720852 6 27 C6.22757731 29.16299211 6.22757731 29.16299211 7 31 C7.6496875 29.7934375 7.6496875 29.7934375 8.3125 28.5625 C10 26 10 26 13 25 C14.04602058 29.49788849 13.92216326 31.83531294 12 36 C10.94294163 39.59867569 10.94294163 39.59867569 12 43 C12.99 41.02 13.98 39.04 15 37 C15.99 37 16.98 37 18 37 C18.05416188 38.60379341 18.09286638 40.20811406 18.125 41.8125 C18.14820312 42.70582031 18.17140625 43.59914062 18.1953125 44.51953125 C18 47 18 47 16 50 C16.66 50.99 17.32 51.98 18 53 C19.32 51.02 20.64 49.04 22 47 C22.66 47.33 23.32 47.66 24 48 C25.23651268 51.70953805 25.06656822 55.14643958 25 59 C25 60.32 25 61.64 25 63 C25.33 63.33 25.66 63.66 26 64 C26.99 62.02 27.98 60.04 29 58 C32 59 32 59 33.25 61.0625 C33.98797747 63.95291174 33.91621126 65.26851414 33.4375 68.125 C32.57461928 71.88015117 32.57461928 71.88015117 34.4375 74 C34.953125 74.33 35.46875 74.66 36 75 C36.66 72.69 37.32 70.38 38 68 C40.40928735 68.96371494 41.76007009 69.65210163 43.25 71.8125 C44.11642293 74.33956687 44.13977701 76.34423685 44 79 C44 79.66 44 80.32 44 81 C45.9600281 82.63676257 45.9600281 82.63676257 48 84 C48 81.69 48 79.38 48 77 C48.99 77 49.98 77 51 77 C54.42964026 80.42964026 55.6779595 83.16939243 56 88 C55.67 88.66 55.34 89.32 55 90 C56.98 90.66 58.96 91.32 61 92 C60.79375 91.05125 60.5875 90.1025 60.375 89.125 C60.25125 88.09375 60.1275 87.0625 60 86 C60.66 85.34 61.32 84.68 62 84 C63.485 84.99 63.485 84.99 65 86 C65 86.66 65 87.32 65 88 C65.66 88 66.32 88 67 88 C69.12508244 91.18762365 69.5020163 93.26512223 70 97 C73.05263664 97.98120464 74.94736336 97.98120464 78 97 C77.64615234 95.89591797 77.64615234 95.89591797 77.28515625 94.76953125 C77 92 77 92 78.43359375 89.76171875 C79.42552734 88.73498047 79.42552734 88.73498047 80.4375 87.6875 C81.09621094 86.99011719 81.75492187 86.29273438 82.43359375 85.57421875 C83.20896484 84.79498047 83.20896484 84.79498047 84 84 C84.66 84.33 85.32 84.66 86 85 C86 87.31 86 89.62 86 92 C88.60943058 90.9354148 88.60943058 90.9354148 91 89 C91 88.0925 91 87.185 91 86.25 C91 81.69520132 93.17710069 79.40764274 96 76 C96.66 76.33 97.32 76.66 98 77 C98.40729228 79.32156597 98.74438677 81.6568787 99 84 C101.14567913 82.27144074 101.14567913 82.27144074 103 80 C102.835 79.38125 102.67 78.7625 102.5 78.125 C101.84030157 75.32128167 102.57040174 74.23563321 103.9375 71.75 C104.31777344 71.04359375 104.69804688 70.3371875 105.08984375 69.609375 C105.39019531 69.07828125 105.69054687 68.5471875 106 68 C106.99 68 107.98 68 109 68 C109.495 71.465 109.495 71.465 110 75 C111.32 73.68 112.64 72.36 114 71 C113.67 70.67 113.34 70.34 113 70 C112.58778626 61.61832061 112.58778626 61.61832061 115 58 C115.99 58 116.98 58 118 58 C118.66 60.31 119.32 62.62 120 65 C120.99 63.35 121.98 61.7 123 60 C122.34 59.34 121.68 58.68 121 58 C120.98828125 55.90625 120.98828125 55.90625 121.3125 53.5 C121.41175781 52.7059375 121.51101562 51.911875 121.61328125 51.09375 C122 49 122 49 123 47 C123.66 47 124.32 47 125 47 C125.99 49.31 126.98 51.62 128 54 C128.66 52.35 129.32 50.7 130 49 C129.34 48.34 128.68 47.68 128 47 C127.734375 44.90625 127.734375 44.90625 127.75 42.5 C127.74226563 41.30890625 127.74226563 41.30890625 127.734375 40.09375 C128 38 128 38 130 36 C131.65 37.65 133.3 39.3 135 41 C135.66 39.68 136.32 38.36 137 37 C136.01 36.67 135.02 36.34 134 36 C132.79727181 33.59454362 132.89928528 32.05003047 132.9375 29.375 C132.94652344 28.55773437 132.95554688 27.74046875 132.96484375 26.8984375 C132.98224609 25.95871094 132.98224609 25.95871094 133 25 C136.16115776 26.36983503 136.9927092 26.9890638 139 30 C139.99 27.525 139.99 27.525 141 25 C140.360625 24.71125 139.72125 24.4225 139.0625 24.125 C137 23 137 23 136 21 C135.95977609 18.6670134 135.95679753 16.33293334 136 14 C138.46800047 15.15173355 140.04783565 16.04783565 142 18 C143.35790301 16.87568002 143.35790301 16.87568002 143.02734375 13.9453125 C142.96756886 11.40358028 142.90507984 8.86191041 142.83984375 6.3203125 C143 3 143 3 145 0 C145.66 0 146.32 0 147 0 C148.28317892 3.84953676 148.06643637 6.94738135 148 11 C148.61875 10.505 149.2375 10.01 149.875 9.5 C152 8 152 8 154 8 C153.54936121 12.84436703 152.46006039 15.53993961 149 19 C146.75 19.8125 146.75 19.8125 145 20 C144.67 21.65 144.34 23.3 144 25 C145.1446875 24.01 145.1446875 24.01 146.3125 23 C149 21 149 21 152 21 C151.91651691 23.83842501 151.4276272 25.54049314 149.48046875 27.6328125 C146.67198623 30.08062674 144.57086558 31.80971147 141 33 C141 33.99 141 34.98 141 36 C141.94875 35.505 142.8975 35.01 143.875 34.5 C147 33 147 33 149 33 C147.63835184 38.14400416 144.3115928 41.1256048 140 44 C139.28585938 44.15984375 138.57171875 44.3196875 137.8359375 44.484375 C137.23007813 44.65453125 136.62421875 44.8246875 136 45 C135.67 45.99 135.34 46.98 135 48 C136.11375 47.4740625 136.11375 47.4740625 137.25 46.9375 C140.1322726 45.95490707 141.21176345 45.9673198 144 47 C140.48223307 51.64847773 138.07435354 54.42776454 132.375 56 C128.74926111 56.68257524 128.74926111 56.68257524 127 60 C127.9075 59.649375 128.815 59.29875 129.75 58.9375 C132.87758436 58.03531221 134.05208081 57.86618493 137 59 C131.952087 64.49331709 127.43414498 67.11498274 120 68 C120 68.66 120 69.32 120 70 C122.64 70 125.28 70 128 70 C122.99635723 75.13887636 120.20629404 77.18624706 113.15625 77.65625 C110.70936243 77.89274238 110.70936243 77.89274238 108 80 C111.3 80 114.6 80 118 80 C116.87823088 83.36530737 116.54511927 83.62117479 113.5625 85.1875 C109.31992372 87.22056097 105.73847562 87.27549517 101.1015625 86.9453125 C98.77651036 86.76450752 98.77651036 86.76450752 97 89 C99.64 89.33 102.28 89.66 105 90 C105 90.99 105 91.98 105 93 C99.2053754 95.35144187 94.53332212 96.13887983 88.30078125 95.90625 C85.04362337 96.03896951 82.75673869 97.34595679 80 99 C79.34 99 78.68 99 78 99 C78 99.66 78 100.32 78 101 C78.63808594 101.12117188 79.27617188 101.24234375 79.93359375 101.3671875 C80.75988281 101.53476563 81.58617188 101.70234375 82.4375 101.875 C83.26121094 102.03742188 84.08492188 102.19984375 84.93359375 102.3671875 C85.61550781 102.57601562 86.29742187 102.78484375 87 103 C87.33 103.66 87.66 104.32 88 105 C86.66658348 104.85492922 85.33327236 104.7088897 84 104.5625 C83.17886719 104.47484375 82.35773438 104.3871875 81.51171875 104.296875 C79.94744828 104.11198456 78.38598516 103.89821736 76.83203125 103.640625 C72.18963722 102.88634821 69.36397015 103.42154271 65 105 C62.66787973 105.07522969 60.3314689 105.09325876 58 105 C61.1254959 102.35534962 64.08788267 101.15585285 68 100 C63.67318304 96.92315238 61.03153532 95.7570893 55.6875 96 C49.72135507 96.26442748 45.31073193 94.58048579 40 92 C40.33 91.34 40.66 90.68 41 90 C43.06640625 89.5859375 43.06640625 89.5859375 45.5625 89.375 C46.38878906 89.30023438 47.21507812 89.22546875 48.06640625 89.1484375 C48.70449219 89.09945312 49.34257813 89.05046875 50 89 C46.77193975 87.38596988 44.91670434 87.00416478 41.25 87.1875 C36.02073622 87.37711071 32.26680634 84.76552263 28 82 C28.33 81.34 28.66 80.68 29 80 C31.97 80 34.94 80 38 80 C35.61897511 77.61897511 35.15430231 77.81808047 31.9375 77.75 C26.28202887 77.2725901 22.29753287 74.57619757 18 71 C18 70.67 18 70.34 18 70 C21.3 70 24.6 70 28 70 C25.26119066 66.61524842 25.26119066 66.61524842 21.25 66.6875 C16.30818523 66.26653059 13.15942763 63.72220068 10 60 C10 59.34 10 58.68 10 58 C12.97 58.66 15.94 59.32 19 60 C18.34 58.68 17.68 57.36 17 56 C15.04148202 55.54301247 13.08116963 55.09111069 11.109375 54.6953125 C7.36131359 53.4598404 5.49185937 50.99023124 3 48 C3 47.34 3 46.68 3 46 C6.12290635 46.48578543 8.99580359 46.9986012 12 48 C11.67 46.68 11.34 45.36 11 44 C10.319375 44.12375 9.63875 44.2475 8.9375 44.375 C4.51014039 43.80980516 1.88051432 41.31530893 -1 38 C-1.9375 35.125 -1.9375 35.125 -2 33 C4.75 35.875 4.75 35.875 7 37 C6.67 35.35 6.34 33.7 6 32 C5.113125 31.95875 4.22625 31.9175 3.3125 31.875 C-1.1110333 30.70651951 -2.45006856 28.71561438 -5 25 C-5.8125 22.625 -5.8125 22.625 -6 21 C-2.62537285 21.54723683 -0.91765 22.0549 2 24 C1.88693303 22.04105639 1.88693303 22.04105639 1 20 C-0.175625 19.5359375 -0.175625 19.5359375 -1.375 19.0625 C-4.77285004 17.68717975 -5.47443791 16.27995849 -7 13 C-7.6875 10.1875 -7.6875 10.1875 -8 8 C-5.0280615 9.12451727 -2.66559313 10.22293791 0 12 C-0.66 11.01 -1.32 10.02 -2 9 C-2.016173 6.22902515 -1.48763555 3.74849127 -1 1 C-0.67 0.67 -0.34 0.34 0 0 Z M145 13 C146 15 146 15 146 15 Z M42 75 C43 78 43 78 43 78 Z " fill="#F89B1C" transform="translate(9,47)"/>
<path d="M0 0 C0 17.82 0 35.64 0 54 C-14.52 54 -29.04 54 -44 54 C-44 40.8 -44 27.6 -44 14 C-38.2173095 12.00192624 -32.43380589 10.00666646 -26.64770508 8.01855469 C-24.67903684 7.34117045 -22.71093371 6.66214159 -20.7434082 5.98144531 C-17.91764402 5.00414548 -15.08991021 4.03274961 -12.26171875 3.0625 C-11.38037766 2.75626709 -10.49903656 2.45003418 -9.59098816 2.13452148 C-8.77036392 1.85423096 -7.94973969 1.57394043 -7.10424805 1.28515625 C-6.38254929 1.03644775 -5.66085052 0.78773926 -4.9172821 0.53149414 C-3 0 -3 0 0 0 Z M-28.0625 25.75 C-28.96097656 26.07484375 -29.85945313 26.3996875 -30.78515625 26.734375 C-33.18088957 27.7914863 -33.18088957 27.7914863 -33.80859375 30.140625 C-33.87175781 30.75421875 -33.93492188 31.3678125 -34 32 C-33.34 32 -32.68 32 -32 32 C-32 31.34 -32 30.68 -32 30 C-25.4 30 -18.8 30 -12 30 C-12 30.66 -12 31.32 -12 32 C-10.35 31.34 -8.7 30.68 -7 30 C-9.49936244 27.50063756 -11.64808008 26.96276247 -15 25.875 C-16.0725 25.52179687 -17.145 25.16859375 -18.25 24.8046875 C-22.25359029 23.63318239 -24.20247346 24.30596129 -28.0625 25.75 Z M-30 32 C-30 33.32 -30 34.64 -30 36 C-24.72 36 -19.44 36 -14 36 C-14 34.35 -14 32.7 -14 31 C-16.29160319 30.97307516 -18.58329546 30.95363876 -20.875 30.9375 C-22.78925781 30.92009766 -22.78925781 30.92009766 -24.7421875 30.90234375 C-27.88664652 30.76823431 -27.88664652 30.76823431 -30 32 Z " fill="#1D303C" transform="translate(81,10)"/>
<path d="M0 0 C1.00591187 0.32915405 2.01182373 0.65830811 3.04821777 0.99743652 C5.15719586 1.68933092 7.26480848 2.38540011 9.37109375 3.08544922 C12.60899317 4.16131489 15.85091134 5.22428195 19.09375 6.28515625 C21.14607689 6.96019746 23.198169 7.635953 25.25 8.3125 C26.22279907 8.63230835 27.19559814 8.9521167 28.19787598 9.28161621 C29.08970581 9.57862427 29.98153564 9.87563232 30.90039062 10.18164062 C31.68820923 10.4428772 32.47602783 10.70411377 33.28771973 10.9732666 C35.09375 11.65625 35.09375 11.65625 36.09375 12.65625 C36.21314139 14.20792373 36.26386277 15.76495119 36.28662109 17.32104492 C36.30268402 18.31686081 36.31874695 19.3126767 36.33529663 20.33866882 C36.37990822 24.95225405 36.42091371 29.56569188 36.44384766 34.17944336 C36.46029172 36.59913834 36.48742545 39.01878713 36.52587891 41.43823242 C36.96749237 69.37316391 28.84194297 86.41774192 9.59375 106.40625 C5.03046774 110.80655789 0.06803385 114.7355008 -4.90625 118.65625 C-5.88851562 119.45546875 -6.87078125 120.2546875 -7.8828125 121.078125 C-8.83929688 121.82578125 -9.79578125 122.5734375 -10.78125 123.34375 C-11.64492187 124.02824219 -12.50859375 124.71273437 -13.3984375 125.41796875 C-15.90625 126.65625 -15.90625 126.65625 -18.30078125 126.18359375 C-21.66425819 124.21190037 -24.67980583 121.96776212 -27.71875 119.53125 C-28.3367749 119.04132568 -28.9547998 118.55140137 -29.59155273 118.04663086 C-33.70978752 114.73746043 -37.54729003 111.27333653 -41.16015625 107.41015625 C-42.93035962 105.55304685 -42.93035962 105.55304685 -45.28515625 103.83984375 C-48.41712675 101.23064627 -50.79329636 98.36794795 -53.28125 95.15625 C-53.75949219 94.54112549 -54.23773438 93.92600098 -54.73046875 93.29223633 C-63.0328444 82.42054395 -70.05605917 70.63239751 -70.01977539 56.59057617 C-70.01969986 55.60993698 -70.01962433 54.62929779 -70.01954651 53.61894226 C-70.01438522 52.5729335 -70.00922394 51.52692474 -70.00390625 50.44921875 C-70.0024913 49.36868729 -70.00107635 48.28815582 -69.99961853 47.17488098 C-69.9940308 43.73114224 -69.9814805 40.28746902 -69.96875 36.84375 C-69.96373342 34.50586032 -69.95917079 32.16796961 -69.95507812 29.83007812 C-69.94406538 24.10544647 -69.92733941 18.38085292 -69.90625 12.65625 C-60.90495432 8.97144375 -51.78856687 5.79595514 -42.55639648 2.74536133 C-40.74365827 2.1428555 -38.93341791 1.53278324 -37.12573242 0.9152832 C-34.48384374 0.01329732 -31.83502683 -0.86480952 -29.18359375 -1.73828125 C-28.38646469 -2.01525345 -27.58933563 -2.29222565 -26.76805115 -2.57759094 C-17.16194778 -5.6729994 -9.30976589 -3.11240289 0 0 Z M-23.4753418 2.01733398 C-24.82144783 2.46295937 -24.82144783 2.46295937 -26.19474792 2.91758728 C-27.1552858 3.24255692 -28.11582367 3.56752655 -29.10546875 3.90234375 C-30.09625931 4.23291275 -31.08704987 4.56348175 -32.10786438 4.90406799 C-34.19924497 5.60320746 -36.28965347 6.30526059 -38.37915039 7.01000977 C-41.58968198 8.09237855 -44.80332311 9.16507363 -48.01757812 10.23632812 C-50.04706497 10.91609978 -52.07636835 11.59641946 -54.10546875 12.27734375 C-55.07207932 12.60028915 -56.03868988 12.92323456 -57.03459167 13.25596619 C-58.36651299 13.70631981 -58.36651299 13.70631981 -59.7253418 14.16577148 C-60.51047653 14.43002426 -61.29561127 14.69427704 -62.10453796 14.96653748 C-63.89901444 15.51315565 -63.89901444 15.51315565 -64.90625 16.65625 C-65.03260341 19.77564765 -65.09500296 22.87158197 -65.109375 25.9921875 C-65.11507507 26.94131012 -65.12077515 27.89043274 -65.12664795 28.86831665 C-65.13612117 30.88762288 -65.14264109 32.90694474 -65.14648438 34.92626953 C-65.1561004 37.9836847 -65.18706347 41.04040167 -65.21875 44.09765625 C-65.35620631 69.23860817 -56.60376886 85.10213668 -39.15625 102.84375 C-32.31223836 109.67878749 -25.00487938 115.3921409 -16.90625 120.65625 C-10.8337493 116.9159416 -5.53963598 112.71910104 -0.3125 107.87109375 C1.79381237 105.93232895 3.95156914 104.10536095 6.15625 102.28125 C17.12541546 92.68323022 28.01490084 78.19726681 31.09375 63.65625 C31.17824436 62.03789515 31.21154 60.4164519 31.20727539 58.79589844 C31.20719986 57.83520447 31.20712433 56.8745105 31.20704651 55.88470459 C31.20188522 54.85540833 31.19672394 53.82611206 31.19140625 52.765625 C31.1899913 51.70587463 31.18857635 50.64612427 31.18711853 49.55426025 C31.18152382 46.17156138 31.16897225 42.78892885 31.15625 39.40625 C31.15123432 37.11198012 31.14667153 34.81770921 31.14257812 32.5234375 C31.13155611 26.90101906 31.11482321 21.27863927 31.09375 15.65625 C24.61860012 13.51173442 18.1404619 11.37644327 11.66015625 9.24755859 C9.45567948 8.52214552 7.25189726 7.79461827 5.04882812 7.06494141 C1.88331132 6.01689868 -1.28461977 4.97646751 -4.453125 3.9375 C-5.43867371 3.60939331 -6.42422241 3.28128662 -7.43963623 2.9432373 C-8.82061493 2.49277039 -8.82061493 2.49277039 -10.22949219 2.03320312 C-11.44194611 1.63349304 -11.44194611 1.63349304 -12.67889404 1.22570801 C-16.64224615 0.21241573 -19.70612325 0.75638088 -23.4753418 2.01733398 Z " fill="#1D303C" transform="translate(98.90625,5.34375)"/>
<path d="M0 0 C13.51521257 3.37880314 13.51521257 3.37880314 19.69921875 5.4453125 C20.66901421 5.7683284 20.66901421 5.7683284 21.65840149 6.09786987 C22.99556883 6.54435983 24.33201761 6.99300778 25.66772461 7.44384766 C27.72123526 8.13637693 29.77740048 8.82056382 31.83398438 9.50390625 C41.86016597 12.86016597 41.86016597 12.86016597 43 14 C43.08867636 16.95683231 43.11527527 19.89085214 43.09765625 22.84765625 C43.09664917 23.63297729 43.09564209 24.41829834 43.09460449 25.22741699 C43.08935638 28.17245943 43.07539523 31.11748112 43.0625 34.0625 C43.041875 40.641875 43.02125 47.22125 43 54 C28.81 54 14.62 54 0 54 C0 36.18 0 18.36 0 0 Z M9 25 C8.92741054 27.18639453 8.91626217 29.37500389 8.9375 31.5625 C8.94652344 32.76003906 8.95554687 33.95757812 8.96484375 35.19140625 C8.97644531 36.11824219 8.98804687 37.04507813 9 38 C14.94 38.99 14.94 38.99 21 40 C21 35.38 21 30.76 21 26 C14.96758854 23.48510938 14.96758854 23.48510938 9 25 Z M22 26 C22 30.62 22 35.24 22 40 C23.60875 39.835 25.2175 39.67 26.875 39.5 C31.75 39 31.75 39 34 39 C33.67 34.71 33.34 30.42 33 26 C29.37 26 25.74 26 22 26 Z " fill="#DC1D25" transform="translate(84,10)"/>
<path d="M0 0 C13.86 0 27.72 0 42 0 C39.00123914 20.99132601 19.8252009 37.59521858 4.25 50.3828125 C2 52 2 52 0 52 C0 34.84 0 17.68 0 0 Z M15 4 C15 4.66 15 5.32 15 6 C13.02 6 11.04 6 9 6 C9 6.66 9 7.32 9 8 C8.34 8 7.68 8 7 8 C5.3845381 11.23092381 5.26161019 14.52092008 6 18 C7.809168 20.21003321 9.58621071 21.39080714 12 23 C12.33 22.34 12.66 21.68 13 21 C11.75625239 17.83685974 11.75625239 17.83685974 9 16 C9.54496731 12.18522884 11.11061173 10.47661852 14 8 C16.25 6.75 16.25 6.75 18 6 C18 5.34 18 4.68 18 4 C17.01 4 16.02 4 15 4 Z M24 13 C24 13.99 24 14.98 24 16 C23.34 16 22.68 16 22 16 C21.67 15.34 21.34 14.68 21 14 C20.34 15.11375 19.68 16.2275 19 17.375 C18.62875 18.00148438 18.2575 18.62796875 17.875 19.2734375 C16.84931652 20.97472667 16.84931652 20.97472667 17 23 C20.84280285 21.75368556 23.07319896 20.63951308 25 17 C24.78282648 14.79199472 24.78282648 14.79199472 24 13 Z M12.375 29.5 C11.92125 29.995 11.4675 30.49 11 31 C12.98 31 14.96 31 17 31 C16.67 30.01 16.34 29.02 16 28 C13.87635519 27.77390663 13.87635519 27.77390663 12.375 29.5 Z " fill="#1D303C" transform="translate(84,68)"/>
<path d="M0 0 C13.86 0 27.72 0 42 0 C42 17.16 42 34.32 42 52 C23.85153348 41.11092009 6.11221296 22.68749001 0 2 C0 1.34 0 0.68 0 0 Z M34 5 C33.67 5.66 33.34 6.32 33 7 C33.99 6.67 34.98 6.34 36 6 C35.34 5.67 34.68 5.34 34 5 Z M31 8 C30.13342884 9.09445838 29.28207276 10.20097781 28.4375 11.3125 C27.96183594 11.92738281 27.48617187 12.54226562 26.99609375 13.17578125 C26.66738281 13.77777344 26.33867188 14.37976563 26 15 C26.33 15.99 26.66 16.98 27 18 C27.66 18.226875 28.32 18.45375 29 18.6875 C31 20 31 20 31.484375 21.90234375 C31.72642559 23.92773766 31.86867264 25.96442585 32 28 C28.7 28 25.4 28 22 28 C21.67 28.66 21.34 29.32 21 30 C26.28 30 31.56 30 37 30 C37 29.34 37 28.68 37 28 C36.34 28 35.68 28 35 28 C34.95101562 27.32453125 34.90203125 26.6490625 34.8515625 25.953125 C34.77679688 25.06109375 34.70203125 24.1690625 34.625 23.25 C34.55539063 22.36828125 34.48578125 21.4865625 34.4140625 20.578125 C34.13702838 17.98561764 34.13702838 17.98561764 32.875 15.84375 C32.58625 15.2353125 32.2975 14.626875 32 14 C33.375 11.25 33.375 11.25 35 9 C33.68 8.67 32.36 8.34 31 8 Z " fill="#DF1C25" transform="translate(38,68)"/>
<path d="M0 0 C0.66 0 1.32 0 2 0 C3.9100032 5.13313361 4.7506452 8.7480644 3 14 C3.39397335 16.63804589 3.39397335 16.63804589 4 19 C5.32 17.35 6.64 15.7 8 14 C8.99 14.33 9.98 14.66 11 15 C10.74337755 16.44010481 10.46909179 17.8770687 10.1875 19.3125 C10.03667969 20.11300781 9.88585937 20.91351563 9.73046875 21.73828125 C8.91790257 24.25419471 7.87617713 25.20720852 6 27 C6.22757731 29.16299211 6.22757731 29.16299211 7 31 C7.6496875 29.7934375 7.6496875 29.7934375 8.3125 28.5625 C10 26 10 26 13 25 C14.04602058 29.49788849 13.92216326 31.83531294 12 36 C11.11736181 39.01568049 10.74633152 40.37428442 11.9375 43.3125 C12.288125 43.869375 12.63875 44.42625 13 45 C7.426073 44.77249278 4.48056439 43.43166366 0.37890625 39.6328125 C-1.40884366 37.51587351 -1.91896914 35.75504918 -2 33 C4.75 35.875 4.75 35.875 7 37 C6.67 35.35 6.34 33.7 6 32 C5.113125 31.95875 4.22625 31.9175 3.3125 31.875 C-1.1110333 30.70651951 -2.45006856 28.71561438 -5 25 C-5.8125 22.625 -5.8125 22.625 -6 21 C-2.62537285 21.54723683 -0.91765 22.0549 2 24 C1.88693303 22.04105639 1.88693303 22.04105639 1 20 C-0.175625 19.5359375 -0.175625 19.5359375 -1.375 19.0625 C-4.77285004 17.68717975 -5.47443791 16.27995849 -7 13 C-7.6875 10.1875 -7.6875 10.1875 -8 8 C-5.0280615 9.12451727 -2.66559313 10.22293791 0 12 C-0.66 11.01 -1.32 10.02 -2 9 C-2.016173 6.22902515 -1.48763555 3.74849127 -1 1 C-0.67 0.67 -0.34 0.34 0 0 Z " fill="#F89715" transform="translate(9,47)"/>
</svg>
